<svg width="37" height="37" viewBox="0 0 37 37" fill="none" xmlns="http://www.w3.org/2000/svg">
<path d="M10.6667 35.1667V16.8334M2.33337 20.1667V31.8334C2.33337 33.6743 3.82576 35.1667 5.66671 35.1667H28.0438C30.5116 35.1667 32.6104 33.3662 32.9856 30.927L34.7805 19.2603C35.2465 16.2315 32.9031 13.5 29.8387 13.5H24C23.0796 13.5 22.3334 12.7538 22.3334 11.8334V5.94311C22.3334 3.67336 20.4934 1.83337 18.2236 1.83337C17.6823 1.83337 17.1917 2.1522 16.9718 2.64691L11.1066 15.8436C10.8391 16.4455 10.2422 16.8334 9.58359 16.8334H5.66671C3.82576 16.8334 2.33337 18.3258 2.33337 20.1667Z" stroke="#101828" stroke-width="3" stroke-linecap="round" stroke-linejoin="round"/>
</svg>
